<?xml version="1.0" encoding="UTF-8"?>
<svg id="Camada_1" data-name="Camada 1" xmlns="http://www.w3.org/2000/svg" version="1.1" viewBox="0 0 100 125">
  <defs>
    <style>
      .cls-1 {
        fill: #234d20;
        stroke-width: 0px;
      }
    </style>
  </defs>
  <g>
    <path class="cls-1" d="M84.5,32.8c-6.5-1.3-13-.6-18.8,2,.7,2.6,1.1,5.3,1.1,8,0,9.6-4.4,18.4-12.2,24.8,8.3.5,16.4-2.1,22.3-8.1,7-7,9.4-17,7.5-26.7Z"/>
    <g>
      <path class="cls-1" d="M86.8,49.5c-1.5,4.6-4,8.8-7.5,12.3-5.9,5.9-13.9,9.1-22.7,9.1h0c-.4,0-.8,0-1.2,0,6.4,4,13.9,5.6,21.4,3.9,9.6-2.2,17-9.3,20.7-18.6-3.2-3-6.8-5.3-10.7-6.7Z"/>
      <path class="cls-1" d="M43.3,70.9c-8.7,0-16.8-3.2-22.7-9.1-3.5-3.5-6-7.7-7.5-12.3-3.9,1.5-7.5,3.8-10.7,6.7,3.6,9.3,11,16.4,20.7,18.6,7.5,1.7,15,0,21.4-3.9-.4,0-.8,0-1.2,0h0Z"/>
    </g>
    <path class="cls-1" d="M33.2,42.8c0-2.7.4-5.4,1.1-8-5.7-2.6-12.3-3.3-18.8-2.1-1.9,9.8.6,19.8,7.5,26.7,6,6,14.1,8.6,22.4,8.1-7.8-6.4-12.2-15.2-12.2-24.8Z"/>
  </g>
  <path class="cls-1" d="M36.4,42.8c0,9.9,5.3,18.7,13.6,24.2,8.2-5.6,13.6-14.4,13.6-24.2s-5.3-18.7-13.6-24.2c-8.2,5.6-13.6,14.4-13.6,24.2Z"/>
</svg>